<svg width="400" height="400" viewBox="0 0 400 400" fill="none" xmlns="http://www.w3.org/2000/svg">
<g id="sik-mark-outer-stroke-primary">
<rect width="400" height="400" fill="#C81973"/>
<g id="outer-stroke">
<mask id="path-1-outside-1" maskUnits="userSpaceOnUse" x="46" y="25" width="308" height="351" fill="black">
<rect fill="white" x="46" y="25" width="308" height="351"/>
<path d="M148.939 46.3976C165.01 42.7313 183.931 41 205.498 41C227.67 41 247.571 44.1711 264.88 50.9279L265.023 50.9838L265.165 51.0428C283.894 58.8357 298.409 71.9033 298.409 92.0357V92.3102L297.935 104.193H301.857C302.839 101.773 304.996 97.2342 308.029 95.2288C311.532 92.8572 315.857 91.6715 321.003 91.6715C327.404 91.6715 332.421 93.0297 336.054 95.7462C337.351 99.1957 338 103.421 338 108.423C338 113.382 337.005 117.888 335.016 121.941C333.545 122.717 331.513 123.385 328.918 123.946C326.323 124.463 323.706 124.722 321.068 124.722C318.43 124.722 316.051 124.55 313.932 124.205C311.856 123.817 310.342 123.472 309.391 123.17C304.905 121.747 302.663 118.865 301.603 115.849H297.47L295.395 167.916H301.295C302.277 165.496 304.434 160.957 307.467 158.952C310.97 156.58 315.295 155.395 320.441 155.395C326.842 155.395 331.859 156.753 335.492 159.469C336.789 162.919 337.438 167.145 337.438 172.146C337.438 177.105 336.443 181.611 334.454 185.664C332.983 186.44 330.951 187.109 328.356 187.669C325.761 188.187 323.144 188.445 320.506 188.445C317.868 188.445 315.489 188.273 313.37 187.928C311.294 187.54 309.78 187.195 308.829 186.893C304.343 185.47 302.101 182.588 301.041 179.573H294.93L292.855 231.639H301.295C302.277 229.219 304.434 224.681 307.467 222.675C310.97 220.304 315.295 219.118 320.441 219.118C326.842 219.118 331.859 220.476 335.492 223.193C336.789 226.642 337.438 230.868 337.438 235.87C337.438 240.828 336.443 245.334 334.454 249.387C332.983 250.163 330.951 250.832 328.356 251.392C325.761 251.91 323.144 252.169 320.506 252.169C317.868 252.169 315.489 251.996 313.37 251.651C311.294 251.263 309.78 250.918 308.829 250.616C304.343 249.193 302.101 246.311 301.041 243.296H292.39L290.391 293.45L283.688 297.242C282.224 298.071 280.787 298.965 279.29 299.897L279.289 299.897C275.913 301.998 272.229 304.291 267.221 306.458V344.255L261.556 347.452C254.691 351.328 246.089 354.271 236.159 356.532C225.761 358.898 213.596 360 199.828 360C185.573 360 172.669 357.967 161.373 353.567L161.258 353.523L161.144 353.475C148.911 348.397 138.621 339.512 138.621 325.363V304.017C122.517 296.282 110.645 284.026 110.515 265.888L109.469 239.647H98.1432C97.1612 242.067 95.0039 246.606 91.9713 248.611C88.4682 250.983 84.1433 252.169 78.9967 252.169C72.5959 252.169 67.5791 250.81 63.9462 248.094C62.6487 244.644 62 240.419 62 235.417C62 230.458 62.9947 225.952 64.9842 221.899C66.4546 221.123 68.4873 220.455 71.0822 219.894C73.6771 219.377 76.2937 219.118 78.9318 219.118C81.57 219.118 83.9487 219.29 86.0679 219.635C88.1438 220.023 89.6575 220.368 90.609 220.67C95.0949 222.093 97.3374 224.975 98.3969 227.991H109.004L106.929 175.924H98.7052C97.7231 178.344 95.5658 182.883 92.5333 184.888C89.0301 187.26 84.7053 188.445 79.5587 188.445C73.1579 188.445 68.141 187.087 64.5082 184.371C63.2107 180.921 62.562 176.695 62.562 171.694C62.562 166.735 63.5567 162.229 65.5461 158.176C67.0166 157.4 69.0492 156.731 71.6442 156.171C74.2391 155.653 76.8556 155.395 79.4938 155.395C82.132 155.395 84.5107 155.567 86.6298 155.912C88.7058 156.3 90.2195 156.645 91.171 156.947C95.6568 158.37 97.8994 161.252 98.9588 164.268H106.464L104.389 112.201H98.7052C97.7231 114.621 95.5659 119.159 92.5333 121.165C89.0302 123.536 84.7053 124.722 79.5587 124.722C73.1579 124.722 68.1411 123.364 64.5082 120.647C63.2107 117.198 62.562 112.972 62.562 107.97C62.562 103.012 63.5567 98.5058 65.5462 94.4526C67.0166 93.6765 69.0493 93.0082 71.6442 92.4476C74.2391 91.9302 76.8557 91.6715 79.4938 91.6715C82.132 91.6715 84.5107 91.844 86.6299 92.1889C88.7058 92.577 90.2195 92.9219 91.171 93.2238C95.6569 94.6468 97.8994 97.529 98.9589 100.544H103.924L102.489 64.5349L109.834 60.3797C120.246 54.4892 133.45 49.9312 148.939 46.3976Z"/>
</mask>
<path d="M148.939 46.3976C165.01 42.7313 183.931 41 205.498 41C227.67 41 247.571 44.1711 264.88 50.9279L265.023 50.9838L265.165 51.0428C283.894 58.8357 298.409 71.9033 298.409 92.0357V92.3102L297.935 104.193H301.857C302.839 101.773 304.996 97.2342 308.029 95.2288C311.532 92.8572 315.857 91.6715 321.003 91.6715C327.404 91.6715 332.421 93.0297 336.054 95.7462C337.351 99.1957 338 103.421 338 108.423C338 113.382 337.005 117.888 335.016 121.941C333.545 122.717 331.513 123.385 328.918 123.946C326.323 124.463 323.706 124.722 321.068 124.722C318.43 124.722 316.051 124.55 313.932 124.205C311.856 123.817 310.342 123.472 309.391 123.17C304.905 121.747 302.663 118.865 301.603 115.849H297.47L295.395 167.916H301.295C302.277 165.496 304.434 160.957 307.467 158.952C310.97 156.58 315.295 155.395 320.441 155.395C326.842 155.395 331.859 156.753 335.492 159.469C336.789 162.919 337.438 167.145 337.438 172.146C337.438 177.105 336.443 181.611 334.454 185.664C332.983 186.44 330.951 187.109 328.356 187.669C325.761 188.187 323.144 188.445 320.506 188.445C317.868 188.445 315.489 188.273 313.37 187.928C311.294 187.54 309.78 187.195 308.829 186.893C304.343 185.47 302.101 182.588 301.041 179.573H294.93L292.855 231.639H301.295C302.277 229.219 304.434 224.681 307.467 222.675C310.97 220.304 315.295 219.118 320.441 219.118C326.842 219.118 331.859 220.476 335.492 223.193C336.789 226.642 337.438 230.868 337.438 235.87C337.438 240.828 336.443 245.334 334.454 249.387C332.983 250.163 330.951 250.832 328.356 251.392C325.761 251.91 323.144 252.169 320.506 252.169C317.868 252.169 315.489 251.996 313.37 251.651C311.294 251.263 309.78 250.918 308.829 250.616C304.343 249.193 302.101 246.311 301.041 243.296H292.39L290.391 293.45L283.688 297.242C282.224 298.071 280.787 298.965 279.29 299.897L279.289 299.897C275.913 301.998 272.229 304.291 267.221 306.458V344.255L261.556 347.452C254.691 351.328 246.089 354.271 236.159 356.532C225.761 358.898 213.596 360 199.828 360C185.573 360 172.669 357.967 161.373 353.567L161.258 353.523L161.144 353.475C148.911 348.397 138.621 339.512 138.621 325.363V304.017C122.517 296.282 110.645 284.026 110.515 265.888L109.469 239.647H98.1432C97.1612 242.067 95.0039 246.606 91.9713 248.611C88.4682 250.983 84.1433 252.169 78.9967 252.169C72.5959 252.169 67.5791 250.81 63.9462 248.094C62.6487 244.644 62 240.419 62 235.417C62 230.458 62.9947 225.952 64.9842 221.899C66.4546 221.123 68.4873 220.455 71.0822 219.894C73.6771 219.377 76.2937 219.118 78.9318 219.118C81.57 219.118 83.9487 219.29 86.0679 219.635C88.1438 220.023 89.6575 220.368 90.609 220.67C95.0949 222.093 97.3374 224.975 98.3969 227.991H109.004L106.929 175.924H98.7052C97.7231 178.344 95.5658 182.883 92.5333 184.888C89.0301 187.26 84.7053 188.445 79.5587 188.445C73.1579 188.445 68.141 187.087 64.5082 184.371C63.2107 180.921 62.562 176.695 62.562 171.694C62.562 166.735 63.5567 162.229 65.5461 158.176C67.0166 157.4 69.0492 156.731 71.6442 156.171C74.2391 155.653 76.8556 155.395 79.4938 155.395C82.132 155.395 84.5107 155.567 86.6298 155.912C88.7058 156.3 90.2195 156.645 91.171 156.947C95.6568 158.37 97.8994 161.252 98.9588 164.268H106.464L104.389 112.201H98.7052C97.7231 114.621 95.5659 119.159 92.5333 121.165C89.0302 123.536 84.7053 124.722 79.5587 124.722C73.1579 124.722 68.1411 123.364 64.5082 120.647C63.2107 117.198 62.562 112.972 62.562 107.97C62.562 103.012 63.5567 98.5058 65.5462 94.4526C67.0166 93.6765 69.0493 93.0082 71.6442 92.4476C74.2391 91.9302 76.8557 91.6715 79.4938 91.6715C82.132 91.6715 84.5107 91.844 86.6299 92.1889C88.7058 92.577 90.2195 92.9219 91.171 93.2238C95.6569 94.6468 97.8994 97.529 98.9589 100.544H103.924L102.489 64.5349L109.834 60.3797C120.246 54.4892 133.45 49.9312 148.939 46.3976Z" stroke="white" stroke-width="32" mask="url(#path-1-outside-1)"/>
</g>
<g id="Guitar head">
<path id="neck-fill" d="M149.943 325.335L149.943 203.333C155.506 200.184 162.943 197.546 172.255 195.42C181.567 193.295 192.875 192.232 206.177 192.232C219.48 192.232 230.788 194.161 240.1 198.019C250.621 202.192 255.882 208.097 255.882 215.734L255.882 337.735C250.319 340.885 242.881 343.522 233.569 345.648C224.257 347.774 213.01 348.837 199.828 348.837C186.646 348.837 175.218 346.947 165.543 343.168C155.143 338.838 149.943 332.893 149.943 325.335Z" fill="#F1F1F3"/>
<path id="neck-stroke" fill-rule="evenodd" clip-rule="evenodd" d="M199.828 337.706C212.467 337.706 222.834 336.682 231.092 334.796C236.566 333.547 241.085 332.163 244.75 330.707L244.75 215.734C244.75 214.78 244.667 211.805 235.996 208.366L235.917 208.335L235.839 208.302C228.235 205.152 218.462 203.363 206.177 203.363C193.409 203.363 182.985 204.389 174.733 206.273C169.259 207.522 164.739 208.906 161.074 210.362L161.074 325.335C161.074 326.299 161.215 329.283 169.709 332.845C177.777 335.976 187.733 337.706 199.828 337.706ZM236.047 356.501C225.681 358.867 213.554 359.969 199.828 359.968C185.618 359.968 172.754 357.936 161.493 353.537L161.378 353.492L161.265 353.444C149.069 348.367 138.811 339.483 138.811 325.335L138.811 196.844L144.459 193.647C151.303 189.772 159.878 186.828 169.778 184.568C180.15 182.201 192.34 181.1 206.177 181.1C220.465 181.1 233.28 183.16 244.283 187.703C256.62 192.616 267.013 201.445 267.013 215.734L267.013 344.225L261.366 347.422C254.521 351.297 245.946 354.241 236.047 356.501Z" fill="#373741"/>
<path id="head-fill" d="M284.286 92.0306L276.609 285.199C267.821 290.186 263.748 294.362 249.038 297.728C234.328 301.094 216.466 302.777 195.451 302.777C174.436 302.777 164.251 299.723 149.54 293.614C132.92 287.007 124.609 277.657 124.609 265.564L116.933 72.3959C125.721 67.4093 137.47 63.233 152.18 59.867C166.89 56.5011 184.657 54.8181 205.481 54.8181C226.304 54.8181 244.358 57.8101 259.641 63.794C276.071 70.6506 284.286 80.0628 284.286 92.0306Z" fill="#F1F1F3"/>
<path id="head-stroke" fill-rule="evenodd" clip-rule="evenodd" d="M205.481 68.6363C185.333 68.6363 168.661 70.2711 155.262 73.3371C145.48 75.5753 137.483 78.1056 131.097 80.8223L138.428 265.29V265.564C138.428 269.379 140.336 275.085 154.645 280.773L154.743 280.812L154.84 280.852C168.19 286.396 176.572 288.959 195.451 288.959C215.8 288.959 232.564 287.322 245.956 284.258C254.846 282.224 258.02 280.335 263.098 277.192L270.465 91.8114C270.389 88.019 268.252 82.3927 254.46 76.6049C241.175 71.4292 224.954 68.6363 205.481 68.6363ZM149.098 46.3971C165.119 42.7311 183.981 41 205.481 41C227.584 41 247.423 44.1708 264.679 50.927L264.822 50.9828L264.963 51.0418C283.634 58.8339 298.104 71.9003 298.104 92.0306V92.3051L290.111 293.425L283.428 297.217C281.968 298.046 280.536 298.94 279.043 299.872C273.007 303.64 265.979 308.027 252.12 311.198C236.092 314.866 217.131 316.595 195.451 316.595C172.346 316.595 160.359 313.063 144.336 306.415C125.545 298.92 110.937 286.027 110.792 265.866L102.791 64.5326L110.113 60.3778C120.493 54.4879 133.656 49.9303 149.098 46.3971Z" fill="#373741"/>
<g id="tuning-machine-right">
<path id="tuning-machine" d="M301.288 115.842H290.219V104.187H301.541C302.52 101.767 304.67 97.2287 307.694 95.2235C311.186 92.8522 315.497 91.6665 320.628 91.6665C327.009 91.6665 332.01 93.0246 335.632 95.7408C336.925 99.19 337.572 103.415 337.572 108.417C337.572 113.375 336.58 117.88 334.597 121.933C333.131 122.709 331.105 123.377 328.518 123.938C325.931 124.455 323.323 124.714 320.693 124.714C318.063 124.714 315.691 124.541 313.579 124.196C311.509 123.808 310 123.463 309.052 123.162C304.58 121.739 302.344 118.857 301.288 115.842Z" fill="#373741"/>
<path id="tuning-machine_2" d="M300.728 179.559H289.659V167.903H300.981C301.96 165.484 304.11 160.945 307.133 158.94C310.626 156.569 314.937 155.383 320.068 155.383C326.449 155.383 331.45 156.741 335.072 159.458C336.365 162.907 337.012 167.132 337.012 172.133C337.012 177.091 336.02 181.597 334.037 185.65C332.571 186.426 330.545 187.094 327.958 187.655C325.371 188.172 322.763 188.431 320.133 188.431C317.503 188.431 315.131 188.258 313.019 187.913C310.949 187.525 309.44 187.18 308.492 186.878C304.02 185.456 301.784 182.574 300.728 179.559Z" fill="#373741"/>
<path id="tuning-machine_3" d="M300.728 243.276H289.659V231.621H300.981C301.96 229.201 304.11 224.663 307.133 222.658C310.626 220.286 314.937 219.101 320.068 219.101C326.449 219.101 331.45 220.459 335.072 223.175C336.365 226.624 337.012 230.849 337.012 235.851C337.012 240.809 336.02 245.314 334.037 249.367C332.571 250.143 330.545 250.811 327.958 251.372C325.371 251.889 322.763 252.148 320.133 252.148C317.503 252.148 315.131 251.975 313.019 251.631C310.949 251.242 309.44 250.898 308.492 250.596C304.02 249.173 301.784 246.291 300.728 243.276Z" fill="#373741"/>
</g>
<g id="tuning-machine-left">
<path id="tuning-machine_4" d="M98.4589 239.628C97.4799 242.048 95.3293 246.586 92.3062 248.591C88.8139 250.962 84.5024 252.148 79.3718 252.148C72.9908 252.148 67.9895 250.79 64.3679 248.074C63.0745 244.624 62.4277 240.399 62.4277 235.398C62.4277 230.44 63.4194 225.934 65.4026 221.881C66.8685 221.105 68.8949 220.437 71.4818 219.877C74.0687 219.359 76.6771 219.101 79.3071 219.101C81.9371 219.101 84.3084 219.273 86.421 219.618C88.4905 220.006 89.9995 220.351 90.948 220.653C95.42 222.076 97.6556 224.958 98.7118 227.973H109.78V239.628H98.4589Z" fill="#373741"/>
<path id="tuning-machine_5" d="M99.0192 175.911C98.0402 178.331 95.8896 182.869 92.8665 184.874C89.3742 187.245 85.0627 188.431 79.9321 188.431C73.5511 188.431 68.5498 187.073 64.9282 184.356C63.6348 180.907 62.988 176.682 62.988 171.681C62.988 166.722 63.9797 162.217 65.963 158.164C67.4288 157.388 69.4552 156.72 72.0421 156.159C74.629 155.642 77.2374 155.383 79.8674 155.383C82.4974 155.383 84.8687 155.556 86.9813 155.901C89.0508 156.289 90.5598 156.634 91.5083 156.935C95.9803 158.358 98.2159 161.24 99.2721 164.255H110.341V175.911H99.0192Z" fill="#373741"/>
<path id="tuning-machine_6" d="M99.0192 112.194C98.0402 114.614 95.8896 119.152 92.8665 121.157C89.3742 123.528 85.0627 124.714 79.9321 124.714C73.5511 124.714 68.5498 123.356 64.9282 120.639C63.6348 117.19 62.988 112.965 62.988 107.964C62.988 103.006 63.9797 98.5002 65.963 94.4474C67.4288 93.6713 69.4552 93.0031 72.0421 92.4426C74.629 91.9252 77.2374 91.6665 79.8674 91.6665C82.4974 91.6665 84.8687 91.839 86.9813 92.1839C89.0508 92.5719 90.5598 92.9168 91.5083 93.2186C95.9803 94.6415 98.2159 97.5234 99.2721 100.539H110.341V112.194H99.0192Z" fill="#373741"/>
</g>
<g id="pegs">
<path id="tuning-peg" fill-rule="evenodd" clip-rule="evenodd" d="M165.296 108.171C165.296 114.743 159.969 120.07 153.397 120.07C146.826 120.07 141.498 114.743 141.498 108.171C141.498 101.6 146.826 96.2725 153.397 96.2725C159.969 96.2725 165.296 101.6 165.296 108.171ZM153.397 115.464C157.425 115.464 160.69 112.199 160.69 108.171C160.69 104.144 157.425 100.879 153.397 100.879C149.369 100.879 146.104 104.144 146.104 108.171C146.104 112.199 149.369 115.464 153.397 115.464Z" fill="#373741"/>
<path id="tuning-peg_2" fill-rule="evenodd" clip-rule="evenodd" d="M165.296 168.817C165.296 175.389 159.969 180.716 153.397 180.716C146.825 180.716 141.498 175.389 141.498 168.817C141.498 162.246 146.825 156.918 153.397 156.918C159.969 156.918 165.296 162.246 165.296 168.817ZM153.397 176.11C157.425 176.11 160.69 172.845 160.69 168.817C160.69 164.79 157.425 161.525 153.397 161.525C149.369 161.525 146.104 164.79 146.104 168.817C146.104 172.845 149.369 176.11 153.397 176.11Z" fill="#373741"/>
<path id="tuning-peg_3" fill-rule="evenodd" clip-rule="evenodd" d="M165.296 235.605C165.296 242.177 159.969 247.504 153.397 247.504C146.825 247.504 141.498 242.177 141.498 235.605C141.498 229.033 146.825 223.706 153.397 223.706C159.969 223.706 165.296 229.033 165.296 235.605ZM153.397 242.898C157.425 242.898 160.69 239.633 160.69 235.605C160.69 231.577 157.425 228.312 153.397 228.312C149.369 228.312 146.104 231.577 146.104 235.605C146.104 239.633 149.369 242.898 153.397 242.898Z" fill="#373741"/>
<path id="tuning-peg_4" fill-rule="evenodd" clip-rule="evenodd" d="M260.487 108.171C260.487 114.743 255.16 120.07 248.589 120.07C242.017 120.07 236.69 114.743 236.69 108.171C236.69 101.6 242.017 96.2725 248.589 96.2725C255.16 96.2725 260.487 101.6 260.487 108.171ZM248.589 115.464C252.616 115.464 255.881 112.199 255.881 108.171C255.881 104.144 252.616 100.879 248.589 100.879C244.561 100.879 241.296 104.144 241.296 108.171C241.296 112.199 244.561 115.464 248.589 115.464Z" fill="#373741"/>
<path id="tuning-peg_5" fill-rule="evenodd" clip-rule="evenodd" d="M260.487 168.817C260.487 175.389 255.16 180.716 248.589 180.716C242.017 180.716 236.69 175.389 236.69 168.817C236.69 162.246 242.017 156.918 248.589 156.918C255.16 156.918 260.487 162.246 260.487 168.817ZM248.589 176.11C252.616 176.11 255.881 172.845 255.881 168.817C255.881 164.79 252.616 161.525 248.589 161.525C244.561 161.525 241.296 164.79 241.296 168.817C241.296 172.845 244.561 176.11 248.589 176.11Z" fill="#373741"/>
<path id="tuning-peg_6" fill-rule="evenodd" clip-rule="evenodd" d="M260.487 235.605C260.487 242.177 255.16 247.504 248.589 247.504C242.017 247.504 236.69 242.177 236.69 235.605C236.69 229.033 242.017 223.706 248.589 223.706C255.16 223.706 260.487 229.033 260.487 235.605ZM248.589 242.898C252.616 242.898 255.881 239.633 255.881 235.605C255.881 231.577 252.616 228.312 248.589 228.312C244.561 228.312 241.296 231.577 241.296 235.605C241.296 239.633 244.561 242.898 248.589 242.898Z" fill="#373741"/>
</g>
</g>
</g>
</svg>
